<?xml version="1.0" standalone="no"?>
<!DOCTYPE svg PUBLIC "-//W3C//DTD SVG 20010904//EN"
 "http://www.w3.org/TR/2001/REC-SVG-20010904/DTD/svg10.dtd">
<svg version="1.0" xmlns="http://www.w3.org/2000/svg"
 width="527.000000pt" height="527.000000pt" viewBox="0 0 527.000000 527.000000"
 preserveAspectRatio="xMidYMid meet">
<metadata>
Created by potrace 1.14, written by Peter Selinger 2001-2017
</metadata>
<g transform="translate(0.000000,527.000000) scale(0.100000,-0.100000)"
fill="#000000" stroke="none">
<path d="M2556 5155 c4 -9 0 -15 -9 -15 -30 0 -107 -39 -107 -55 0 -15 -20
-19 -85 -16 -42 2 -15 -15 47 -30 27 -6 48 -14 48 -19 0 -4 11 -5 25 -2 21 4
25 1 23 -18 -4 -34 20 -36 34 -3 7 15 17 31 22 35 15 10 38 -3 31 -20 -5 -13
-3 -13 11 -1 15 12 16 12 10 -8 -4 -12 -2 -24 4 -28 5 -3 10 1 10 9 0 20 19
21 26 1 4 -8 12 -15 20 -15 19 0 17 -10 -7 -36 -20 -22 -18 -51 2 -38 6 3 13
-3 16 -15 5 -19 39 -29 77 -22 5 1 5 -6 2 -16 -6 -16 -6 -16 12 0 23 21 29 21
47 3 12 -12 12 -16 1 -25 -7 -6 -15 -9 -18 -6 -3 3 -11 -1 -18 -10 -7 -8 -9
-15 -6 -15 4 0 0 -7 -8 -16 -9 -9 -31 -16 -49 -17 -23 -2 -32 -7 -32 -19 0
-10 -5 -17 -10 -17 -16 2 -61 43 -74 67 -6 12 -18 22 -26 22 -8 0 -18 8 -24
17 -5 10 -13 15 -17 11 -4 -4 -1 -14 5 -22 13 -16 9 -20 -31 -30 -21 -5 -28
-3 -28 8 0 14 -36 46 -52 46 -5 0 -8 -6 -8 -14 0 -8 -7 -17 -16 -20 -22 -8
-24 -8 -21 7 1 6 -5 12 -15 12 -9 0 -25 8 -35 18 -23 21 -34 22 -27 3 9 -23
-25 -27 -46 -6 -11 11 -20 25 -20 30 0 6 -4 10 -10 10 -5 0 -10 6 -10 14 0 14
-40 49 -47 42 -2 -2 3 -16 11 -32 17 -32 13 -43 -9 -24 -10 8 -15 9 -15 1 0
-6 -3 -10 -7 -9 -8 3 -53 -37 -53 -46 0 -3 8 -6 18 -9 15 -3 15 -5 -3 -12 -35
-14 -57 -38 -43 -46 23 -14 -1 -23 -35 -12 -20 6 -42 6 -57 1 l-23 -8 21 -23
c22 -23 30 -43 13 -33 -5 3 -20 -3 -32 -13 -19 -16 -21 -21 -9 -25 8 -2 24 -4
35 -4 11 1 41 1 67 0 40 -2 45 -5 41 -21 -7 -27 13 -35 35 -13 25 25 111 28
118 4 3 -9 10 -25 15 -35 7 -14 4 -19 -16 -27 -21 -8 -24 -13 -16 -29 9 -16 4
-23 -35 -47 -25 -16 -55 -27 -66 -26 -18 3 -20 0 -14 -22 7 -29 -9 -35 -44
-16 -13 7 -21 7 -25 0 -3 -5 1 -10 9 -10 9 0 16 -4 16 -10 0 -14 -33 -13 -48
2 -8 8 -6 19 10 42 l21 31 -29 -27 c-18 -16 -39 -25 -54 -24 -31 3 -63 -12
-55 -25 4 -5 11 -7 16 -4 5 4 12 -1 16 -11 6 -16 -18 -38 -41 -39 -13 0 -20
-25 -7 -26 6 -1 16 -3 21 -4 6 -1 13 -3 16 -4 4 0 -5 -11 -20 -22 l-27 -22 31
-32 c27 -27 29 -33 15 -39 -23 -8 -25 -8 -25 6 0 21 -31 46 -50 41 -11 -3 -22
-14 -26 -25 -3 -10 -18 -24 -32 -30 -26 -9 -26 -10 -7 -18 22 -8 53 -40 40
-40 -18 0 -84 36 -85 45 0 6 -22 10 -50 10 -39 0 -50 -3 -50 -16 0 -9 3 -19 7
-23 8 -8 13 -36 7 -36 -2 0 -13 6 -25 13 -17 10 -22 9 -34 -6 -10 -14 -20 -17
-37 -12 -43 14 -49 24 -32 59 13 27 13 29 0 12 -8 -10 -17 -24 -19 -30 -2 -7
-12 -5 -28 5 -34 22 -59 30 -59 19 0 -5 8 -11 18 -14 9 -4 28 -15 42 -27 l25
-20 -56 7 c-60 6 -81 -5 -59 -31 7 -8 11 -15 9 -16 -2 0 -12 -2 -22 -4 -33 -6
-48 -15 -43 -24 3 -5 -13 -11 -36 -15 -46 -8 -41 -22 10 -29 44 -7 51 -15 28
-32 -13 -10 -25 -11 -42 -5 -40 16 -79 21 -67 9 5 -5 23 -12 38 -15 16 -3 36
-9 44 -14 17 -10 16 -10 -25 -14 -6 -1 -18 -7 -27 -14 -18 -16 -11 -46 9 -38
9 3 14 -1 14 -12 0 -13 6 -10 26 13 15 18 23 23 20 12 -3 -11 -2 -15 4 -12 6
3 10 12 10 18 0 7 22 21 48 33 44 19 50 20 71 6 19 -13 24 -14 32 -1 8 12 10
12 19 -1 7 -11 5 -16 -10 -18 -24 -4 -26 -17 -5 -26 22 -8 18 -26 -5 -26 -10
0 -24 9 -30 20 -8 15 -15 17 -33 11 -28 -11 -28 -33 1 -46 12 -5 22 -15 22
-22 0 -15 26 -17 35 -3 6 9 55 11 55 1 0 -2 -7 -9 -17 -16 -25 -19 -6 -38 31
-31 17 4 42 8 55 10 12 3 34 15 48 27 19 19 26 21 32 10 5 -7 15 -11 22 -9 8
3 22 -1 31 -10 16 -13 18 -12 27 11 13 34 30 42 45 21 13 -16 14 -16 25 2 8
13 14 15 17 7 4 -8 13 -9 29 -3 17 6 35 5 60 -6 32 -13 39 -12 36 9 0 4 8 7
19 7 11 0 20 4 20 10 0 15 -71 59 -86 53 -8 -3 -14 0 -14 6 0 14 57 14 65 0 5
-7 12 -6 23 4 10 8 35 13 58 13 33 -1 52 -10 85 -39 24 -20 53 -44 64 -51 19
-14 19 -16 3 -33 -11 -10 -18 -13 -18 -5 0 7 -7 12 -16 12 -14 0 -14 -3 -3
-16 11 -14 9 -15 -27 -10 -35 6 -37 5 -14 -6 l25 -11 -23 -5 c-39 -6 -19 -25
30 -28 31 -2 50 2 58 11 9 11 16 12 31 2 14 -9 21 -9 31 1 6 6 17 12 22 12 6
0 -17 -27 -50 -59 -60 -58 -62 -59 -97 -48 -25 8 -33 16 -29 27 5 12 3 13 -10
3 -17 -15 -28 -8 -28 18 0 10 -10 23 -22 30 -18 10 -20 9 -15 -4 3 -9 -3 -26
-14 -39 -14 -16 -19 -18 -15 -6 5 16 -16 43 -26 33 -3 -3 -22 -6 -42 -7 -30
-1 -38 -6 -42 -25 -4 -15 -12 -22 -20 -19 -7 3 -15 0 -18 -7 -3 -7 -13 -2 -26
16 -24 31 -53 37 -43 10 5 -14 0 -12 -21 6 -27 25 -56 36 -56 21 0 -4 7 -13
15 -20 9 -7 14 -19 11 -27 -3 -7 1 -13 9 -13 8 0 15 -4 15 -10 0 -12 -30 -1
-49 17 -19 19 -47 -3 -30 -24 9 -10 8 -18 -6 -33 -19 -21 -45 -27 -45 -11 0
15 -32 22 -47 9 -11 -9 -16 -9 -22 1 -6 9 -11 8 -22 -5 -11 -14 -11 -18 4 -29
24 -17 21 -25 -8 -25 -35 0 -42 -26 -16 -54 27 -29 27 -34 -3 -29 -17 4 -27
-1 -35 -16 -14 -26 -53 -29 -50 -3 3 29 0 32 -27 21 -35 -13 -39 -7 -19 25 10
14 13 26 8 26 -12 0 -48 -40 -56 -61 -4 -12 -13 -15 -31 -12 -17 4 -26 1 -26
-7 0 -7 -8 -10 -20 -7 -10 3 -24 -1 -30 -8 -8 -10 -4 -18 16 -34 15 -12 25
-24 22 -27 -10 -9 -58 8 -58 21 0 25 -16 24 -49 -6 -26 -22 -37 -26 -51 -19
-44 23 -82 -7 -45 -36 9 -6 10 -15 5 -24 -5 -8 -4 -22 1 -32 7 -14 5 -23 -11
-40 -11 -12 -17 -24 -14 -27 3 -3 13 4 21 17 17 24 49 31 40 8 -7 -17 11 -36
35 -36 17 0 17 -2 3 -30 -23 -45 -18 -54 19 -31 40 25 54 26 78 4 14 -13 21
-14 30 -5 7 7 21 12 33 12 18 -1 18 -1 3 -11 -22 -12 -24 -47 -3 -55 8 -3 30
4 50 16 19 12 35 17 35 11 0 -6 9 -11 20 -11 11 0 20 7 20 15 0 8 -4 15 -10
15 -5 0 -10 11 -10 25 0 14 5 25 10 25 6 0 10 -4 10 -9 0 -14 49 -22 70 -11
15 8 21 6 30 -11 8 -13 18 -19 30 -16 10 2 25 -4 34 -14 19 -23 44 -24 73 -4
18 13 22 13 27 0 3 -8 1 -17 -4 -20 -15 -9 -12 -55 3 -55 8 0 22 9 32 20 14
16 21 18 32 8 13 -10 14 -8 11 12 -2 21 1 25 25 26 16 1 32 6 35 11 9 14 42
12 42 -2 0 -6 -5 -16 -12 -23 -9 -9 -9 -12 2 -12 7 0 10 -3 7 -7 -4 -3 -2 -12
4 -19 6 -7 8 -22 4 -33 -5 -17 -9 -19 -25 -8 -16 9 -23 9 -36 -5 -14 -14 -15
-20 -5 -32 10 -12 7 -17 -18 -30 l-30 -16 -28 43 c-28 42 -65 59 -85 39 -12
-12 38 -72 60 -72 10 0 12 -3 7 -9 -15 -13 -134 -21 -141 -9 -3 5 -12 7 -19 4
-8 -3 -16 0 -18 7 -3 9 -7 9 -17 0 -10 -9 -18 -8 -36 4 -13 8 -31 12 -40 9
-12 -5 -15 -2 -11 11 2 10 6 24 8 31 5 18 -24 37 -45 29 -10 -4 -16 -18 -16
-37 0 -16 -4 -30 -10 -30 -5 0 -7 -7 -4 -15 4 -9 0 -15 -10 -15 -19 0 -20 5
-5 31 8 15 7 24 -2 35 -10 13 -15 12 -36 -7 -12 -13 -23 -31 -23 -41 0 -22
-27 -23 -54 -3 -27 20 -53 19 -65 -4 -6 -10 -24 -21 -41 -25 -27 -5 -30 -9
-25 -27 6 -18 4 -21 -9 -16 -9 4 -22 10 -30 13 -9 3 -19 -3 -26 -16 -8 -15
-15 -18 -24 -11 -9 7 -19 6 -34 -5 -17 -12 -20 -19 -12 -34 14 -27 62 -48 87
-39 27 10 41 -18 17 -36 -12 -8 -27 -9 -56 -1 -44 12 -62 -1 -55 -40 5 -30
-26 -48 -53 -32 -17 11 -22 10 -30 -2 -5 -8 -10 -25 -10 -37 0 -27 -15 -30
-24 -7 -4 9 4 35 17 58 24 44 25 66 2 66 -22 0 -45 -42 -45 -82 0 -26 -4 -38
-14 -38 -8 0 -16 4 -18 10 -5 16 -68 -28 -68 -47 -1 -10 -15 -27 -32 -38 -24
-15 -33 -29 -36 -55 -2 -19 -8 -41 -14 -47 -6 -7 -7 -24 -4 -38 4 -14 2 -25
-4 -25 -13 0 -90 -77 -90 -90 0 -5 19 8 42 31 37 36 43 38 49 22 6 -16 7 -16
13 4 7 21 34 38 44 28 3 -3 0 -11 -6 -17 -7 -7 -12 -19 -12 -27 0 -11 5 -9 16
7 8 12 24 22 34 22 10 0 22 5 25 10 3 6 17 10 30 10 18 0 26 -7 31 -25 5 -19
9 -23 19 -15 9 8 14 5 18 -12 6 -21 7 -21 25 -5 18 16 19 16 30 -8 6 -14 16
-25 22 -25 13 0 13 13 -1 27 -7 7 -6 12 5 16 10 4 20 -1 26 -13 10 -19 50 -28
50 -12 0 5 7 17 15 28 14 18 14 18 10 -4 -2 -13 1 -34 7 -47 9 -20 14 -22 29
-14 11 5 19 17 19 27 0 9 13 23 30 30 34 15 38 36 12 65 -9 11 -11 17 -4 13 6
-4 12 -2 12 4 0 7 8 9 19 5 11 -3 22 -1 26 4 4 7 12 7 25 -1 15 -10 22 -10 32
0 11 11 9 17 -11 33 -19 16 -21 22 -11 34 7 9 15 13 18 11 2 -3 29 9 59 26 61
34 76 32 39 -5 -14 -15 -26 -31 -26 -37 0 -21 24 -9 64 33 l40 42 4 -30 c5
-39 17 -51 37 -35 13 11 19 10 34 -4 17 -16 20 -16 35 -1 9 9 16 26 16 38 1
24 42 77 61 77 8 0 9 -4 0 -13 -8 -10 -7 -19 3 -32 12 -17 16 -17 30 -6 9 8
19 11 23 7 10 -9 -16 -58 -27 -51 -6 3 -10 -1 -10 -10 0 -8 -6 -18 -14 -21 -8
-3 -16 -15 -19 -26 -5 -16 -2 -19 13 -15 10 3 21 -1 24 -9 3 -8 15 -11 30 -8
15 2 26 0 26 -6 0 -5 7 -10 16 -10 24 0 0 -27 -45 -50 -31 -15 -41 -16 -66 -6
-19 8 -25 15 -17 20 7 4 12 17 12 29 l-1 22 -19 -24 c-19 -21 -59 -24 -46 -2
3 5 -4 11 -15 14 -12 3 -18 10 -14 16 3 7 -2 11 -14 11 -12 0 -21 -7 -21 -16
0 -8 -4 -13 -9 -9 -6 3 -19 -5 -30 -17 -12 -12 -21 -17 -21 -12 0 6 -16 8 -35
6 -23 -3 -35 -9 -35 -19 0 -9 -6 -13 -15 -9 -8 3 -15 1 -15 -4 0 -5 -15 -8
-32 -7 -23 1 -33 -3 -34 -13 -5 -46 -17 -60 -50 -60 -18 0 -36 -6 -41 -12 -8
-13 -9 -18 -12 -75 -1 -25 -8 -36 -30 -47 -30 -16 -54 -53 -26 -42 8 3 22 9
32 13 11 4 14 3 9 -5 -10 -17 14 -15 33 3 15 12 19 11 36 -15 29 -43 45 -45
58 -10 15 39 23 38 31 -4 6 -33 31 -64 42 -53 10 10 12 42 3 59 -6 11 -4 18 8
23 10 3 19 1 21 -4 2 -6 10 -11 18 -11 7 0 11 6 8 13 -10 27 20 38 60 22 42
-18 43 -42 2 -37 -17 2 -26 -2 -26 -11 0 -8 -7 -20 -15 -27 -22 -18 -19 -57 5
-63 23 -6 50 25 50 56 0 16 5 14 30 -13 31 -33 50 -33 50 1 0 17 -11 24 -33
20 -14 -2 -19 27 -7 48 13 24 30 28 30 6 0 -8 5 -15 10 -15 6 0 10 5 10 11 0
5 10 3 22 -5 44 -31 108 -16 108 26 0 17 39 46 41 31 1 -4 2 -14 3 -22 0 -8 8
-16 16 -18 12 -4 12 -2 2 5 -11 7 -11 11 0 19 28 21 33 20 34 -9 2 -51 20 -55
44 -9 11 23 29 45 38 48 9 4 23 14 30 22 10 12 15 13 19 3 9 -23 63 -45 78
-32 8 6 11 18 8 26 -4 11 2 13 26 8 27 -6 31 -4 31 14 0 21 -32 47 -44 35 -3
-3 -15 6 -26 20 -12 15 -25 26 -30 24 -5 -1 -15 6 -22 16 -12 16 -29 23 -60
26 -5 1 -8 6 -8 12 0 5 4 8 9 4 5 -3 13 4 16 16 5 15 10 18 18 10 17 -17 24
-13 36 19 9 26 14 30 36 24 15 -4 32 -1 42 7 15 13 16 11 10 -21 -3 -19 -3
-29 0 -22 7 19 23 15 49 -14 22 -23 23 -27 9 -54 -19 -37 0 -46 44 -19 32 19
33 19 59 1 31 -22 52 -19 52 9 0 18 -67 59 -96 59 -17 0 -28 92 -12 101 9 6
18 -2 28 -23 19 -40 37 -46 51 -16 8 20 16 23 40 20 22 -3 27 -7 19 -17 -7 -9
-6 -15 2 -22 18 -14 47 -8 64 14 7 10 14 14 14 9 0 -5 6 -3 14 3 7 6 27 13 44
15 16 2 43 13 57 25 28 21 61 29 50 12 -7 -12 32 -34 45 -26 6 3 10 13 10 21
0 8 4 13 9 10 4 -3 6 -16 4 -30 -7 -33 16 -44 38 -18 15 19 22 21 44 12 38
-14 71 -12 85 5 16 20 36 19 44 -1 4 -12 2 -15 -9 -10 -10 3 -15 -1 -15 -13 0
-14 -5 -18 -20 -14 -16 4 -19 0 -17 -23 1 -21 -3 -29 -17 -32 -15 -3 -18 1
-14 22 3 14 1 26 -5 26 -12 0 -1 -88 13 -105 5 -6 7 -21 3 -33 -5 -20 -3 -22
18 -14 45 16 77 -6 49 -34 -15 -15 -1 -46 19 -42 9 2 23 17 32 35 10 21 20 29
28 23 9 -5 10 -10 2 -14 -17 -11 -13 -26 8 -26 21 0 36 -26 20 -36 -6 -4 -5
-11 3 -21 18 -22 19 -45 2 -70 -8 -13 -15 -26 -16 -30 -3 -15 -28 -34 -62 -48
-19 -8 -37 -19 -41 -25 -3 -5 -15 -10 -26 -10 -17 0 -165 -82 -179 -99 -3 -4
-23 -21 -46 -38 -56 -44 -100 -109 -85 -126 6 -8 8 -17 5 -20 -4 -3 3 -23 15
-43 12 -20 21 -37 19 -38 -54 -37 -68 -50 -68 -62 0 -8 -8 -15 -17 -16 -10 0
-24 -2 -31 -2 -8 -1 -21 -10 -31 -22 -9 -11 -28 -24 -43 -27 -15 -4 -30 -16
-33 -28 -6 -19 -8 -19 -24 -5 -16 14 -19 14 -39 -4 -12 -11 -26 -20 -32 -20
-6 0 -25 -7 -41 -16 -17 -8 -47 -17 -67 -19 -20 -2 -37 -4 -37 -5 0 0 -67 -3
-150 -5 -166 -5 -299 -11 -480 -20 -66 -4 -142 -8 -170 -9 -116 -7 -106 -3
-93 -33 20 -46 39 -63 73 -63 45 0 79 -40 175 -210 45 -80 107 -186 137 -237
35 -60 53 -101 51 -117 -2 -16 9 -38 31 -66 18 -23 31 -43 29 -45 -2 -2 -37
-6 -78 -10 -208 -15 -301 -24 -320 -28 -8 -2 -33 -7 -55 -12 -54 -10 -66 -22
-60 -56 12 -72 15 -86 24 -117 5 -18 10 -34 11 -37 4 -24 17 -34 53 -40 44 -8
55 -11 60 -15 4 -3 75 -14 162 -25 22 -3 51 -8 65 -10 34 -7 190 -17 273 -18
37 0 67 -5 67 -9 0 -5 3 -7 7 -5 5 3 51 1 103 -4 130 -13 381 -26 605 -34 50
-1 90 -3 90 -5 0 -6 47 -5 51 1 2 5 15 5 27 0 24 -9 524 -7 622 3 33 3 123 8
200 11 77 3 169 7 205 10 62 4 194 10 400 20 187 8 305 16 325 22 11 4 31 7
45 9 14 2 39 5 55 7 17 2 44 10 60 18 29 14 31 18 46 124 9 61 15 113 13 116
-2 4 -32 10 -66 14 -35 4 -72 9 -83 11 -33 6 -133 14 -265 20 -183 9 -185 9
-185 15 0 4 21 30 48 59 47 53 56 73 37 85 -5 3 -6 13 -3 23 6 14 162 284 193
332 5 8 21 35 36 60 93 154 118 179 197 185 23 1 45 3 49 4 8 1 28 59 28 81 0
21 29 19 -435 27 -269 4 -346 8 -368 19 -15 8 -32 12 -38 8 -6 -3 -31 -8 -55
-10 -34 -3 -44 0 -44 11 0 8 -9 16 -20 16 -30 2 -33 3 -62 23 -28 18 -54 78
-43 96 3 6 23 19 43 29 52 27 95 116 88 185 -8 79 -64 131 -153 141 -68 7 -68
8 -69 92 -1 146 -7 177 -45 218 -11 12 -15 25 -10 33 6 10 10 10 21 -3 14 -17
35 -21 25 -4 -4 6 1 16 10 23 17 12 16 15 -5 44 -13 18 -27 32 -32 32 -14 0 5
64 24 80 25 20 15 43 -23 58 -23 8 -30 16 -25 27 6 17 -9 55 -23 55 -4 0 -7
-16 -6 -35 2 -31 -1 -35 -23 -35 -14 0 -31 8 -38 17 -9 12 -13 13 -14 5 0 -16
-30 -1 -64 33 -26 26 -50 32 -61 15 -10 -16 -60 37 -63 66 -2 29 -8 35 -81 95
-50 42 -81 108 -56 122 21 11 19 29 -2 26 -34 -5 -65 12 -60 32 6 22 -28 35
-62 24 -14 -4 -30 1 -48 14 -16 13 -34 19 -45 15 -10 -3 -30 2 -44 10 -17 12
-23 13 -22 4 2 -8 -10 -14 -29 -16 -26 -3 -32 0 -27 12 4 10 1 16 -9 16 -22 0
-47 39 -47 71 0 28 -43 79 -66 79 -16 0 -19 16 -4 25 5 3 34 6 66 7 33 1 58 6
61 14 2 6 13 10 24 7 10 -3 19 -1 19 5 0 5 12 23 28 39 27 30 38 32 112 20 47
-8 55 -12 60 -31 9 -32 30 -30 36 3 5 25 9 29 20 20 8 -7 11 -21 8 -35 -4 -15
-2 -24 5 -24 6 0 11 4 11 8 0 5 17 8 37 7 27 -2 40 -8 47 -24 14 -32 33 -24
27 13 -1 5 5 6 14 2 9 -3 19 -6 22 -6 3 0 -2 -11 -11 -25 -25 -37 -17 -80 21
-117 25 -24 31 -37 27 -55 -8 -32 17 -31 61 3 19 14 39 23 45 19 18 -11 11
-23 -10 -18 -18 5 -20 1 -17 -33 3 -42 14 -67 26 -60 4 3 36 8 71 12 47 5 61
4 55 -5 -10 -17 3 -61 19 -61 9 0 12 10 10 28 -3 24 2 31 31 44 29 13 37 13
52 2 10 -7 26 -14 36 -14 14 0 18 -7 17 -27 -3 -44 -1 -50 17 -57 20 -8 44 19
36 40 -3 8 -1 14 5 14 5 0 13 -10 17 -22 4 -14 8 -18 12 -10 2 6 15 12 28 12
12 0 28 7 35 15 7 8 16 12 22 9 5 -3 4 -12 -3 -21 -17 -20 5 -34 51 -31 26 2
37 -2 45 -17 5 -11 14 -27 20 -35 5 -8 10 -21 11 -28 4 -25 13 -24 37 2 13 14
32 26 40 26 13 0 15 7 11 30 -6 26 -4 30 15 30 11 0 37 -17 56 -37 39 -41 46
-37 14 8 -12 17 -16 29 -9 29 7 0 9 7 6 15 -3 8 -9 22 -12 30 -9 22 13 18 37
-6 16 -16 23 -18 29 -9 5 8 16 9 31 5 l24 -7 -24 26 c-14 14 -30 26 -36 26 -6
0 -26 15 -45 34 -21 20 -41 31 -52 28 -12 -3 -19 3 -23 21 -5 19 -16 28 -38
33 -18 3 -37 11 -44 16 -7 5 -17 7 -23 3 -17 -11 -38 13 -33 38 3 13 -2 29
-10 36 -12 10 -19 8 -34 -7 -10 -10 -26 -22 -36 -25 -10 -4 -15 -11 -12 -17 3
-5 -1 -10 -9 -10 -10 0 -13 6 -10 15 4 8 1 15 -6 15 -10 0 -31 14 -87 61 -24
19 -13 27 31 22 50 -6 60 3 42 38 -10 19 -19 23 -44 21 -35 -2 -38 4 -17 32
11 15 21 17 52 11 21 -5 44 -9 51 -11 22 -4 12 11 -24 35 -35 24 -45 64 -16
67 6 1 19 2 27 3 35 3 11 20 -32 23 -27 2 -46 6 -43 9 6 7 -19 39 -31 39 -5 0
-9 -7 -9 -16 0 -11 -5 -14 -16 -10 -9 3 -20 3 -26 0 -6 -4 -26 -8 -44 -9 -25
-1 -31 1 -24 10 6 7 6 15 -2 23 -8 8 -14 7 -24 -5 -9 -14 -15 -15 -27 -5 -8 7
-25 11 -38 10 -17 -2 -27 5 -37 24 -17 36 -60 48 -78 23 -13 -17 -16 -16 -49
17 -24 24 -43 34 -55 31 -11 -3 -28 4 -41 16 -15 14 -18 21 -9 21 9 0 7 6 -7
19 -11 11 -27 33 -34 50 -14 32 -49 43 -49 16 0 -8 -4 -15 -10 -15 -5 0 -10 5
-10 10 0 6 -7 10 -16 10 -8 0 -12 -4 -9 -10 9 -15 -7 -12 -29 5 -33 25 -55 17
-23 -8 15 -13 27 -26 27 -30 0 -12 -35 6 -59 30 -16 17 -27 21 -34 14 -7 -7
-7 -15 2 -24 9 -12 8 -16 -4 -21 -9 -3 -15 0 -15 9 0 8 -17 32 -38 53 -21 21
-36 44 -35 49 4 12 -14 26 -39 30 -12 2 -15 -3 -11 -18 5 -18 3 -19 -21 -8
-14 7 -26 19 -26 28 0 9 -7 25 -15 35 -8 10 -12 23 -9 27 5 9 -11 13 -30 10
-9 -2 -26 18 -26 30 0 8 75 49 91 49 8 0 4 -8 -9 -20 -27 -25 -27 -24 0 -55
14 -16 24 -21 29 -14 4 8 14 6 32 -5 21 -14 25 -15 23 -2 -1 15 1 16 29 16 16
0 16 -44 1 -69 -12 -19 2 -27 25 -13 16 10 23 10 36 -3 11 -12 19 -13 26 -6
15 15 48 13 71 -4 11 -8 16 -15 11 -15 -5 0 0 -6 11 -14 16 -13 21 -13 35 0 8
8 21 14 27 14 6 0 9 7 6 15 -5 11 4 10 35 -6 45 -21 81 -13 81 18 0 13 3 14
12 5 7 -7 13 -22 13 -34 0 -12 6 -23 13 -25 6 -3 12 2 12 10 0 8 9 17 21 20
12 3 18 10 15 16 -8 12 5 20 38 23 14 1 26 8 26 15 0 7 7 13 15 13 9 0 19 8
22 18 9 21 29 43 36 36 2 -3 7 2 10 10 4 9 0 22 -8 30 -16 16 -20 36 -7 36 4
0 24 -19 46 -42 34 -38 34 -34 1 22 -5 8 -10 23 -10 33 -1 10 -17 31 -35 47
l-33 28 29 4 29 4 -33 13 c-34 14 -35 23 -4 27 62 9 82 16 82 30 0 16 -38 34
-57 27 -7 -3 -25 9 -39 27 -32 37 -44 27 -44 -37 0 -51 -14 -63 -28 -23 -6 16
-24 38 -40 47 -24 15 -28 22 -21 41 5 12 13 22 18 22 17 0 42 46 35 64 -9 24
-69 21 -87 -5 -10 -14 -17 -17 -22 -9 -4 7 -19 10 -36 6 -28 -5 -48 7 -29 19
14 9 12 19 -9 43 -21 25 -36 29 -27 7 11 -29 -12 -15 -26 15 -12 29 -27 37
-42 23 -3 -4 -14 -8 -24 -9 -9 -2 -18 -8 -20 -13 -5 -16 -31 -13 -48 4 -9 8
-24 15 -35 15 -20 0 -26 15 -10 24 18 12 -1 56 -24 56 -21 0 -45 -29 -45 -56
0 -15 -6 -24 -15 -24 -8 0 -15 7 -15 15 0 8 -4 15 -9 15 -5 0 -16 3 -24 6 -9
3 -16 -3 -20 -16 l-5 -21 -35 22 c-26 18 -34 29 -33 50 1 26 16 55 16 32 0 -6
9 -9 19 -6 13 3 21 -2 25 -15 6 -19 30 -23 79 -13 13 2 8 29 -9 46 -15 15 -18
15 -34 0 -23 -21 -38 -1 -16 21 9 8 16 20 16 25 0 6 4 8 9 5 4 -3 16 3 26 14
13 15 21 17 31 9 7 -6 18 -8 25 -4 6 4 15 1 20 -6 7 -11 9 -11 9 -1 0 9 5 10
19 3 14 -8 24 -6 41 9 29 25 44 26 30 1 -13 -25 -13 -28 4 -34 8 -3 38 3 66
14 48 18 54 19 76 4 13 -8 24 -20 24 -25 0 -5 13 -18 29 -29 24 -18 34 -19 54
-10 18 8 30 8 45 0 33 -18 54 -4 46 32 -6 27 -4 29 15 24 24 -6 40 11 21 23
-7 4 -21 5 -32 2 -12 -3 -25 3 -34 17 -19 27 -34 27 -34 1 0 -18 -3 -19 -20
-10 -11 6 -20 21 -20 33 0 32 -14 49 -33 41 -9 -3 -17 -2 -17 4 0 6 -2 17 -5
24 -4 10 4 14 28 14 27 0 37 -6 50 -28 18 -32 57 -39 57 -10 0 10 -7 28 -16
40 -8 12 -13 26 -10 31 6 9 -75 126 -92 132 -5 2 -12 17 -16 33 -6 23 -4 27 8
23 20 -8 44 49 27 66 -8 8 -11 8 -11 -1 0 -6 -7 -9 -15 -6 -8 4 -15 12 -15 19
0 7 7 15 15 19 22 8 18 36 -4 36 -11 0 -23 -4 -26 -10 -10 -17 -33 -11 -59 15
-14 14 -32 25 -41 25 -12 0 -15 6 -10 21 4 12 3 19 -1 16 -12 -7 -54 10 -54
22 0 6 7 8 15 5 8 -4 15 -1 15 6 0 7 -14 11 -37 9 -46 -3 -84 8 -100 30 -9 13
-16 14 -42 5 -18 -7 -31 -8 -33 -2 -6 18 -37 -4 -47 -33 -10 -30 -11 -30 -35
-12 -14 10 -29 28 -35 41 -9 19 -18 22 -70 22 -50 0 -59 -3 -55 -15z m467
-127 c31 -15 33 -21 12 -38 -20 -17 -65 5 -65 32 0 21 16 23 53 6z m47 -152
c20 -4 26 -36 7 -36 -9 0 -22 -3 -30 -6 -10 -4 -16 4 -19 26 -4 25 -2 30 11
24 9 -3 23 -7 31 -8z m-192 -106 c7 -12 10 -25 6 -31 -3 -5 0 -16 6 -24 10
-12 9 -15 -4 -15 -9 0 -16 3 -17 8 -3 29 -9 47 -18 50 -10 3 -4 32 8 32 3 0
12 -9 19 -20z m213 7 c2 -23 -8 -28 -34 -16 -15 7 -27 15 -27 19 0 10 60 7 61
-3z m-563 -192 c19 -24 50 -36 37 -15 -7 11 25 13 40 2 17 -12 33 -48 27 -59
-4 -6 -18 -10 -32 -9 -15 1 -24 -4 -22 -11 4 -21 -14 -15 -39 12 -13 13 -30
25 -38 25 -8 0 -23 7 -33 17 -14 12 -18 13 -18 2 0 -8 -7 -4 -16 9 -9 13 -14
24 -13 25 2 1 13 7 24 14 32 19 62 15 83 -12z m22 -135 c28 0 32 -15 11 -41
-16 -21 -20 -21 -34 -8 -10 10 -13 26 -9 45 3 16 7 23 9 17 3 -7 13 -13 23
-13z m173 -158 c25 -18 50 -32 55 -32 6 0 10 -12 11 -27 0 -16 1 -37 1 -48 1
-10 -9 -27 -22 -37 l-23 -17 21 -22 c20 -19 35 -22 98 -19 21 1 50 -36 50 -65
0 -14 -7 -20 -24 -21 -35 -2 -42 4 -30 26 8 15 6 21 -11 31 -26 14 -37 4 -41
-41 -3 -33 -6 -36 -67 -58 -36 -12 -70 -27 -76 -32 -7 -5 -29 -12 -51 -15 -22
-2 -46 -13 -55 -24 -14 -17 -22 -19 -45 -11 -16 6 -65 21 -109 35 -113 36
-135 46 -135 60 0 26 77 115 155 179 43 36 82 66 86 66 4 0 26 -20 50 -45 23
-24 44 -43 46 -41 2 1 -2 16 -7 33 -10 27 -53 59 -72 55 -34 -8 45 82 84 97
35 13 61 7 111 -27z m-603 -12 c-6 -11 -15 -20 -20 -20 -5 0 -19 -19 -31 -42
-12 -23 -24 -36 -28 -30 -4 7 -12 8 -21 2 -10 -7 -11 -10 -2 -10 6 0 12 -5 12
-11 0 -16 -35 -6 -35 11 0 8 -4 21 -8 27 -14 21 10 51 36 46 14 -3 29 2 36 11
8 9 22 16 32 16 11 0 19 5 19 10 0 6 5 10 10 10 7 0 7 -6 0 -20z m216 -67
c-20 -18 -40 -33 -45 -33 -17 0 -5 46 19 73 22 26 24 26 43 10 18 -17 18 -18
-17 -50z m-109 11 c1 -20 6 -41 12 -47 19 -19 12 -29 -19 -25 -16 3 -30 1 -30
-2 0 -8 -54 -21 -68 -17 -4 1 -7 8 -7 16 0 8 -6 16 -12 18 -9 3 -5 15 10 39
12 18 28 32 35 29 6 -3 18 -8 26 -11 8 -3 23 4 33 15 9 12 18 21 18 21 1 0 1
-16 2 -36z m924 -68 c5 3 24 -9 42 -26 25 -25 27 -31 12 -26 -14 4 -25 0 -35
-14 -18 -25 -25 -25 -27 -2 0 9 -3 33 -7 52 -3 19 -4 29 0 22 3 -6 10 -9 15
-6z m-978 -113 c-39 -61 -90 -91 -108 -63 -9 15 14 40 36 40 11 0 19 5 19 10
0 10 -15 14 -34 11 -5 -1 -4 4 1 11 6 7 32 14 58 16 l46 3 -18 -28z m282 -323
c0 -8 3 -20 7 -26 7 -11 -66 -36 -95 -31 -24 4 -46 27 -26 28 7 0 30 11 49 24
38 26 65 28 65 5z m-191 -840 c16 -34 21 -52 13 -57 -6 -3 -13 -1 -15 5 -11
35 -62 57 -62 27 0 -8 -8 -15 -18 -15 -12 0 -18 7 -17 18 1 20 44 69 62 71 7
1 24 -21 37 -49z m-156 -48 c2 -7 -6 -12 -17 -12 -28 0 -37 -26 -17 -49 9 -10
16 -23 16 -29 0 -14 -40 -11 -41 3 -1 5 -2 18 -3 27 0 10 -4 17 -7 15 -3 -1
-14 5 -24 13 -16 13 -15 15 10 36 29 23 75 20 83 -4z m210 -109 c2 -53 -17
-75 -62 -71 -20 2 -36 8 -36 13 1 6 12 9 26 8 27 -2 31 9 9 27 -8 7 -15 19
-15 26 0 8 7 14 15 14 8 0 15 -7 15 -15 0 -8 5 -15 11 -15 6 0 9 6 6 14 -5 13
10 36 23 36 3 0 7 -17 8 -37z m52 -169 c0 5 13 -5 28 -22 20 -22 38 -32 58
-32 27 -1 28 -2 10 -15 -11 -9 -30 -12 -48 -8 -20 4 -35 0 -48 -12 -19 -17
-20 -17 -20 3 0 13 6 22 16 22 10 0 14 7 12 23 -2 12 -10 22 -18 22 -23 0 -41
27 -27 43 8 11 13 9 23 -10 8 -13 13 -19 14 -14z"/>
<path d="M2740 4800 c0 -11 2 -20 4 -20 2 0 6 9 9 20 3 11 1 20 -4 20 -5 0 -9
-9 -9 -20z"/>
<path d="M3268 4405 c9 -26 18 -42 20 -37 3 9 -26 82 -33 82 -2 0 4 -20 13
-45z"/>
<path d="M1545 4130 c-3 -6 1 -7 9 -4 18 7 21 14 7 14 -6 0 -13 -4 -16 -10z"/>
<path d="M1325 3839 c-4 -6 -5 -12 -2 -15 2 -3 7 2 10 11 7 17 1 20 -8 4z"/>
<path d="M1874 3795 c-8 -31 1 -55 20 -55 20 0 27 26 16 55 -12 32 -28 32 -36
0z"/>
<path d="M1860 3724 c0 -2 15 -11 33 -20 27 -14 30 -15 19 -2 -11 14 -52 31
-52 22z"/>
<path d="M3111 2984 c-35 -44 -24 -101 17 -87 18 7 42 57 42 88 0 34 -32 33
-59 -1z"/>
<path d="M3300 2857 c0 -29 33 -62 54 -54 21 8 14 36 -15 58 -32 25 -39 24
-39 -4z"/>
<path d="M1630 2351 c0 -10 30 -24 37 -17 3 2 -5 9 -16 16 -12 6 -21 7 -21 1z"/>
<path d="M1972 2306 c5 -35 18 -45 18 -13 0 14 -5 29 -10 32 -7 4 -10 -3 -8
-19z"/>
</g>
</svg>
